<svg width="95" height="85" viewBox="0 0 95 85" fill="none" xmlns="http://www.w3.org/2000/svg">
<rect width="95" height="85" rx="19" fill="#CD9C20"/>
<path fill-rule="evenodd" clip-rule="evenodd" d="M23.944 12.728C26.2907 12.728 28.4454 13.048 30.408 13.688C32.4134 14.2854 34.1414 15.2027 35.592 16.44C37.0854 17.6347 38.2374 19.128 39.048 20.92C39.9014 22.6694 40.328 24.7174 40.328 27.064C40.328 28.8987 40.0507 30.6907 39.496 32.44C38.984 34.1894 38.1094 35.7894 36.872 37.24C35.7824 38.4799 34.3951 39.5213 32.7099 40.3641L44.296 59H37.128L26.2421 41.9341C25.7475 41.962 25.2374 41.976 24.712 41.976H17.864V59H11.656V12.728H23.944ZM24.584 36.024C26.4187 36.024 27.9334 35.7467 29.128 35.192C30.3654 34.6374 31.3254 33.9334 32.008 33.08C32.6907 32.184 33.1814 31.224 33.48 30.2C33.7787 29.176 33.928 28.216 33.928 27.32C33.928 26.3814 33.7574 25.4214 33.416 24.44C33.1174 23.416 32.6054 22.4774 31.88 21.624C31.1974 20.7707 30.28 20.0667 29.128 19.512C28.0187 18.9574 26.6534 18.68 25.032 18.68H17.864V36.024H24.584ZM62.1784 58.5862C59.3875 59.7642 56.7574 60.226 54.2881 59.9715C51.8022 59.6777 49.6025 58.8001 47.6888 57.3385C45.7979 55.8211 44.3215 53.8045 43.2596 51.2888C42.2475 48.8909 41.936 46.4521 42.325 43.9724C42.7139 41.4926 43.6816 39.2317 45.2279 37.1897C46.7741 35.1476 48.8052 33.5957 51.3209 32.5338C54.5442 31.1733 57.6154 30.9885 60.5344 31.9793C63.4535 32.9702 65.9833 34.9589 68.1239 37.9456L51.6562 52.9151C52.8427 53.7851 54.1613 54.33 55.6121 54.55C57.1686 54.7266 58.733 54.483 60.3053 53.8194C61.3667 53.3714 62.3057 52.7435 63.1225 51.9356C63.9786 51.1111 64.7063 50.2019 65.3057 49.2079L69.5583 52.2062C68.6882 53.546 67.5944 54.795 66.2771 55.9531C64.9991 57.0946 63.6329 57.9723 62.1784 58.5862ZM48.5008 48.7292C48.6983 49.1969 48.9164 49.6382 49.1553 50.053L61.2147 38.8467C60.2396 37.8767 59.0602 37.1707 57.6763 36.7285C56.1609 36.2104 54.5187 36.3247 52.7498 37.0713C51.2561 37.7018 50.0773 38.6393 49.2132 39.8839C48.3326 41.0892 47.8237 42.4619 47.6864 44.0018C47.5491 45.5417 47.8206 47.1175 48.5008 48.7292ZM12.176 67.336C11.9307 67.256 11.6614 67.216 11.368 67.216H9.83203V73H10.608L10.608 70.872H11.464C11.5297 70.872 11.5935 70.8703 11.6553 70.8668L13.016 73H13.912L12.4638 70.6705C12.6744 70.5652 12.8478 70.435 12.984 70.28C13.1387 70.0987 13.248 69.8987 13.312 69.68C13.3814 69.4614 13.416 69.2374 13.416 69.008C13.416 68.7147 13.3627 68.4587 13.256 68.24C13.1547 68.016 13.0107 67.8294 12.824 67.68C12.6427 67.5254 12.4267 67.4107 12.176 67.336ZM12.016 70.024C11.8667 70.0934 11.6774 70.128 11.448 70.128H10.608L10.608 67.96H11.504C11.7067 67.96 11.8774 67.9947 12.016 68.064C12.16 68.1334 12.2747 68.2214 12.36 68.328C12.4507 68.4347 12.5147 68.552 12.552 68.68C12.5947 68.8027 12.616 68.9227 12.616 69.04C12.616 69.152 12.5974 69.272 12.56 69.4C12.5227 69.528 12.4614 69.648 12.376 69.76C12.2907 69.8667 12.1707 69.9547 12.016 70.024ZM15.3799 72.856C15.6519 73.0054 15.9772 73.08 16.3559 73.08C16.5532 73.08 16.7532 73.0454 16.9559 72.976C17.1639 72.9067 17.3506 72.816 17.5159 72.704L17.1719 72.152C17.0546 72.2374 16.9266 72.3067 16.7879 72.36C16.6546 72.4134 16.5159 72.44 16.3719 72.44C16.1586 72.44 15.9666 72.392 15.7959 72.296C15.6395 72.2002 15.5142 72.0733 15.4198 71.9155L18.0439 70.992C17.9426 70.544 17.7479 70.192 17.4599 69.936C17.1719 69.68 16.8092 69.552 16.3719 69.552C16.0306 69.552 15.7212 69.632 15.4439 69.792C15.1666 69.952 14.9452 70.1654 14.7799 70.432C14.6146 70.6987 14.5319 70.9947 14.5319 71.32C14.5319 71.6614 14.6039 71.9654 14.7479 72.232C14.8972 72.4934 15.1079 72.7014 15.3799 72.856ZM15.2709 71.4643C15.2636 71.4049 15.2599 71.3435 15.2599 71.28C15.2599 71.0614 15.3052 70.8667 15.3959 70.696C15.4866 70.5254 15.6119 70.392 15.7719 70.296C15.9319 70.1947 16.1132 70.144 16.3159 70.144C16.5559 70.144 16.7506 70.2107 16.8999 70.344C17.0378 70.4622 17.1393 70.6008 17.2044 70.76L15.2709 71.4643ZM19.5042 72.88C19.7602 73.0134 20.0428 73.08 20.3522 73.08C20.5442 73.08 20.7175 73.0534 20.8722 73C21.0268 72.9414 21.1628 72.8694 21.2802 72.784C21.4028 72.6987 21.4988 72.616 21.5682 72.536C21.5923 72.5085 21.6136 72.4826 21.6322 72.4584V73H22.3762V69.688H21.6882L21.6342 70.2152C21.5239 70.0439 21.3712 69.8948 21.1762 69.768C20.9628 69.624 20.7015 69.552 20.3922 69.552C20.0828 69.552 19.7975 69.624 19.5362 69.768C19.2802 69.912 19.0748 70.12 18.9202 70.392C18.7655 70.6587 18.6882 70.976 18.6882 71.344C18.6882 71.7174 18.7602 72.0347 18.9042 72.296C19.0535 72.552 19.2535 72.7467 19.5042 72.88ZM21.0562 72.36C20.9068 72.4294 20.7388 72.464 20.5522 72.464C20.3548 72.464 20.1708 72.4134 20.0002 72.312C19.8295 72.2107 19.6935 72.072 19.5922 71.896C19.4908 71.72 19.4402 71.5254 19.4402 71.312C19.4402 71.0827 19.4882 70.8827 19.5842 70.712C19.6855 70.5414 19.8188 70.408 19.9842 70.312C20.1495 70.216 20.3308 70.168 20.5282 70.168C20.7095 70.168 20.8748 70.2027 21.0242 70.272C21.1735 70.336 21.3015 70.4294 21.4082 70.552C21.5148 70.6694 21.5895 70.808 21.6322 70.968V71.616C21.5948 71.792 21.5255 71.944 21.4242 72.072C21.3282 72.1947 21.2055 72.2907 21.0562 72.36ZM24.4077 66.808H23.6637L23.6637 73H24.4077L24.4077 66.808ZM32.1702 67.216H28.4102V73H32.2822V72.256H29.1862V70.464H31.8502V69.72H29.1862L29.1862 67.96H32.1702V67.216ZM33.6849 72.944C33.9089 73.024 34.1382 73.064 34.3729 73.064C34.6662 73.064 34.9062 73.016 35.0929 72.92C35.2849 72.8187 35.4262 72.6854 35.5169 72.52C35.6129 72.3494 35.6609 72.1654 35.6609 71.968C35.6609 71.792 35.6209 71.6454 35.5409 71.528C35.4662 71.4107 35.3649 71.312 35.2369 71.232C35.1089 71.152 34.9622 71.088 34.7969 71.04C34.6796 70.9974 34.5596 70.9574 34.4369 70.92C34.3196 70.8774 34.2236 70.8214 34.1489 70.752C34.0742 70.6827 34.0369 70.592 34.0369 70.48C34.0369 70.4 34.0636 70.3307 34.1169 70.272C34.1702 70.2134 34.2369 70.168 34.3169 70.136C34.4022 70.104 34.4902 70.0907 34.5809 70.096C34.6876 70.1014 34.8076 70.128 34.9409 70.176C35.0742 70.224 35.1889 70.2987 35.2849 70.4L35.5809 69.936C35.4209 69.808 35.2502 69.7174 35.0689 69.664C34.8876 69.6054 34.6822 69.576 34.4529 69.576C34.1969 69.576 33.9809 69.624 33.8049 69.72C33.6342 69.816 33.5036 69.9414 33.4129 70.096C33.3276 70.2454 33.2849 70.408 33.2849 70.584C33.2849 70.8134 33.3569 71.008 33.5009 71.168C33.6449 71.328 33.8529 71.4534 34.1249 71.544C34.2582 71.5814 34.3836 71.6214 34.5009 71.664C34.6236 71.7067 34.7222 71.7627 34.7969 71.832C34.8769 71.9014 34.9169 71.9947 34.9169 72.112C34.9169 72.2187 34.8876 72.304 34.8289 72.368C34.7756 72.4267 34.7036 72.4694 34.6129 72.496C34.5222 72.5227 34.4236 72.536 34.3169 72.536C34.1729 72.536 34.0262 72.504 33.8769 72.44C33.7329 72.3707 33.5916 72.2694 33.4529 72.136L33.1409 72.568C33.2849 72.7334 33.4662 72.8587 33.6849 72.944ZM37.7667 68.232H37.0227V69.704H36.4147V70.288H37.0227L37.0227 73H37.7667V70.288H38.6787V69.704H37.7667L37.7667 68.232ZM40.1057 72.88C40.3617 73.0134 40.6444 73.08 40.9537 73.08C41.1457 73.08 41.3191 73.0534 41.4737 73C41.6284 72.9414 41.7644 72.8694 41.8817 72.784C42.0044 72.6987 42.1004 72.616 42.1697 72.536C42.1938 72.5085 42.2152 72.4826 42.2337 72.4584V73H42.9777V69.688H42.2897L42.2358 70.2152C42.1255 70.0439 41.9728 69.8948 41.7777 69.768C41.5644 69.624 41.3031 69.552 40.9937 69.552C40.6844 69.552 40.3991 69.624 40.1377 69.768C39.8817 69.912 39.6764 70.12 39.5217 70.392C39.3671 70.6587 39.2897 70.976 39.2897 71.344C39.2897 71.7174 39.3617 72.0347 39.5057 72.296C39.6551 72.552 39.8551 72.7467 40.1057 72.88ZM41.6577 72.36C41.5084 72.4294 41.3404 72.464 41.1537 72.464C40.9564 72.464 40.7724 72.4134 40.6017 72.312C40.4311 72.2107 40.2951 72.072 40.1937 71.896C40.0924 71.72 40.0417 71.5254 40.0417 71.312C40.0417 71.0827 40.0897 70.8827 40.1857 70.712C40.2871 70.5414 40.4204 70.408 40.5857 70.312C40.7511 70.216 40.9324 70.168 41.1297 70.168C41.3111 70.168 41.4764 70.2027 41.6257 70.272C41.7751 70.336 41.9031 70.4294 42.0097 70.552C42.1164 70.6694 42.1911 70.808 42.2337 70.968V71.616C42.1964 71.792 42.1271 71.944 42.0257 72.072C41.9297 72.1947 41.8071 72.2907 41.6577 72.36ZM45.3292 68.232H44.5852V69.704H43.9772V70.288H44.5852V73H45.3292V70.288H46.2412V69.704H45.3292V68.232ZM47.7002 72.856C47.9722 73.0054 48.2976 73.08 48.6762 73.08C48.8736 73.08 49.0736 73.0454 49.2762 72.976C49.4842 72.9067 49.6709 72.816 49.8362 72.704L49.4922 72.152C49.3749 72.2374 49.2469 72.3067 49.1082 72.36C48.9749 72.4134 48.8362 72.44 48.6922 72.44C48.4789 72.44 48.2869 72.392 48.1162 72.296C47.9598 72.2002 47.8345 72.0733 47.7401 71.9155L50.3642 70.992C50.2629 70.544 50.0682 70.192 49.7802 69.936C49.4922 69.68 49.1296 69.552 48.6922 69.552C48.3509 69.552 48.0416 69.632 47.7642 69.792C47.4869 69.952 47.2656 70.1654 47.1002 70.432C46.9349 70.6987 46.8522 70.9947 46.8522 71.32C46.8522 71.6614 46.9242 71.9654 47.0682 72.232C47.2176 72.4934 47.4282 72.7014 47.7002 72.856ZM47.5912 71.4643C47.5839 71.4049 47.5802 71.3435 47.5802 71.28C47.5802 71.0614 47.6256 70.8667 47.7162 70.696C47.8069 70.5254 47.9322 70.392 48.0922 70.296C48.2522 70.1947 48.4336 70.144 48.6362 70.144C48.8762 70.144 49.0709 70.2107 49.2202 70.344C49.3581 70.4622 49.4596 70.6008 49.5247 70.7599L47.5912 71.4643ZM56.3557 67.984C56.5904 68.0587 56.8064 68.1467 57.0037 68.248L57.2997 67.656C57.0811 67.5227 56.8277 67.4107 56.5397 67.32C56.2571 67.2294 55.9291 67.184 55.5557 67.184C55.2251 67.1947 54.9317 67.2667 54.6757 67.4C54.4197 67.528 54.2171 67.7067 54.0677 67.936C53.9237 68.16 53.8517 68.424 53.8517 68.728C53.8517 68.9787 53.8997 69.192 53.9957 69.368C54.0917 69.544 54.2197 69.6934 54.3797 69.816C54.5397 69.9334 54.7131 70.0347 54.8997 70.12C55.0864 70.2 55.2704 70.2747 55.4517 70.344C55.6437 70.4187 55.8251 70.504 55.9957 70.6C56.1664 70.6907 56.3024 70.8027 56.4037 70.936C56.5104 71.064 56.5637 71.2267 56.5637 71.424C56.5637 71.6534 56.5051 71.8374 56.3877 71.976C56.2704 72.1147 56.1211 72.2187 55.9397 72.288C55.7637 72.352 55.5851 72.384 55.4037 72.384C55.2331 72.384 55.0571 72.36 54.8757 72.312C54.6944 72.2587 54.5211 72.192 54.3557 72.112C54.1904 72.0267 54.0437 71.9387 53.9157 71.848L53.5717 72.456C53.7264 72.5574 53.9024 72.656 54.0997 72.752C54.2971 72.8427 54.5104 72.9174 54.7397 72.976C54.9744 73.0347 55.2197 73.064 55.4757 73.064C55.8651 73.064 56.2011 72.992 56.4837 72.848C56.7664 72.704 56.9824 72.5067 57.1317 72.256C57.2864 72.0054 57.3637 71.728 57.3637 71.424C57.3637 71.1467 57.3211 70.9147 57.2357 70.728C57.1557 70.5414 57.0437 70.384 56.8997 70.256C56.7611 70.128 56.6037 70.0214 56.4277 69.936C56.2517 69.8507 56.0731 69.7734 55.8917 69.704C55.6837 69.624 55.4837 69.5387 55.2917 69.448C55.0997 69.3574 54.9451 69.2507 54.8277 69.128C54.7104 69 54.6517 68.8454 54.6517 68.664C54.6517 68.424 54.7424 68.232 54.9237 68.088C55.1104 67.944 55.3584 67.872 55.6677 67.872C55.8917 67.872 56.1211 67.9094 56.3557 67.984ZM58.428 70.416C58.2733 70.6827 58.196 70.9814 58.196 71.312C58.196 71.6694 58.2733 71.9814 58.428 72.248C58.588 72.5094 58.804 72.7147 59.076 72.864C59.3533 73.008 59.668 73.08 60.02 73.08C60.3826 73.08 60.7 73.0027 60.972 72.848C61.2493 72.6934 61.4626 72.4827 61.612 72.216C61.7613 71.944 61.836 71.6427 61.836 71.312C61.836 70.9814 61.7613 70.6827 61.612 70.416C61.4626 70.1494 61.252 69.9387 60.98 69.784C60.708 69.6294 60.3906 69.552 60.028 69.552C59.676 69.552 59.3613 69.6294 59.084 69.784C58.8066 69.9387 58.588 70.1494 58.428 70.416ZM59.084 71.904C58.988 71.728 58.94 71.5334 58.94 71.32C58.94 71.112 58.9853 70.9227 59.076 70.752C59.172 70.576 59.3 70.4347 59.46 70.328C59.6253 70.2214 59.8093 70.168 60.012 70.168C60.22 70.168 60.404 70.2214 60.564 70.328C60.7293 70.4294 60.8573 70.568 60.948 70.744C61.0386 70.9147 61.084 71.1067 61.084 71.32C61.084 71.5334 61.0386 71.728 60.948 71.904C60.8573 72.0747 60.7293 72.2107 60.564 72.312C60.404 72.4134 60.22 72.464 60.012 72.464C59.8146 72.464 59.6333 72.4134 59.468 72.312C59.308 72.2107 59.18 72.0747 59.084 71.904ZM63.5873 66.808H62.8433L62.8433 73L63.5873 73V66.808ZM65.1786 72.856C65.3759 73.0374 65.6239 73.128 65.9226 73.128C66.1306 73.128 66.3226 73.0934 66.4986 73.024C66.6746 72.9547 66.8266 72.8614 66.9546 72.744C67.072 72.636 67.1625 72.5156 67.2262 72.3828L67.2746 73H67.9546V69.688H67.2106V71.232C67.2106 71.472 67.1653 71.688 67.0746 71.88C66.9839 72.0667 66.8639 72.216 66.7146 72.328C66.5706 72.4347 66.4053 72.488 66.2186 72.488C66.0159 72.4827 65.8666 72.424 65.7706 72.312C65.6799 72.2 65.6293 72.0534 65.6186 71.872V69.688H64.8746V72.136C64.8853 72.4294 64.9866 72.6694 65.1786 72.856ZM70.3058 68.232H69.5618V69.704H68.9538V70.288H69.5618V73H70.3058V70.288H71.2178V69.704L70.3058 69.704V68.232ZM72.8608 69.688H72.1168V73H72.8608V69.688ZM72.1968 68.192C72.1061 68.272 72.0608 68.3707 72.0608 68.488C72.0608 68.6054 72.1061 68.704 72.1968 68.784C72.2928 68.864 72.3968 68.904 72.5088 68.904C72.6208 68.904 72.7194 68.8667 72.8048 68.792C72.8954 68.712 72.9408 68.6107 72.9408 68.488C72.9408 68.3707 72.8954 68.272 72.8048 68.192C72.7194 68.112 72.6208 68.072 72.5088 68.072C72.3968 68.072 72.2928 68.112 72.1968 68.192ZM74.092 70.416C73.9374 70.6827 73.86 70.9814 73.86 71.312C73.86 71.6694 73.9374 71.9814 74.092 72.248C74.252 72.5094 74.468 72.7147 74.74 72.864C75.0174 73.008 75.332 73.08 75.684 73.08C76.0467 73.08 76.364 73.0027 76.636 72.848C76.9134 72.6934 77.1267 72.4827 77.276 72.216C77.4254 71.944 77.5 71.6427 77.5 71.312C77.5 70.9813 77.4254 70.6827 77.276 70.416C77.1267 70.1494 76.916 69.9387 76.644 69.784C76.372 69.6294 76.0547 69.552 75.692 69.552C75.34 69.552 75.0254 69.6294 74.748 69.784C74.4707 69.9387 74.252 70.1494 74.092 70.416ZM74.748 71.904C74.652 71.728 74.604 71.5334 74.604 71.32C74.604 71.112 74.6494 70.9227 74.74 70.752C74.836 70.576 74.964 70.4347 75.124 70.328C75.2894 70.2214 75.4734 70.168 75.676 70.168C75.884 70.168 76.068 70.2214 76.228 70.328C76.3934 70.4294 76.5214 70.568 76.612 70.744C76.7027 70.9147 76.748 71.1067 76.748 71.32C76.748 71.5334 76.7027 71.728 76.612 71.904C76.5214 72.0747 76.3934 72.2107 76.228 72.312C76.068 72.4134 75.884 72.464 75.676 72.464C75.4787 72.464 75.2974 72.4134 75.132 72.312C74.972 72.2107 74.844 72.0747 74.748 71.904ZM79.222 70.3271L79.1714 69.688H78.5074V73H79.2514V71.448C79.2514 71.2027 79.2941 70.9867 79.3794 70.8C79.4701 70.6133 79.5927 70.4667 79.7474 70.36C79.9021 70.2534 80.0754 70.2 80.2674 70.2C80.4754 70.2 80.6274 70.2587 80.7234 70.376C80.8247 70.488 80.8781 70.6347 80.8834 70.816V73H81.6354V70.552C81.6301 70.2587 81.5261 70.0214 81.3234 69.84C81.1261 69.6534 80.8701 69.56 80.5554 69.56C80.2407 69.56 79.9634 69.6347 79.7234 69.784C79.4969 69.9199 79.3298 70.101 79.222 70.3271ZM83.1693 72.944C83.3933 73.024 83.6226 73.064 83.8573 73.064C84.1506 73.064 84.3906 73.016 84.5773 72.92C84.7693 72.8187 84.9106 72.6854 85.0013 72.52C85.0973 72.3493 85.1453 72.1654 85.1453 71.968C85.1453 71.792 85.1053 71.6454 85.0253 71.528C84.9506 71.4107 84.8493 71.312 84.7213 71.232C84.5933 71.152 84.4466 71.088 84.2813 71.04C84.1639 70.9973 84.0439 70.9574 83.9213 70.92C83.8039 70.8773 83.7079 70.8214 83.6333 70.752C83.5586 70.6827 83.5213 70.592 83.5213 70.48C83.5213 70.4 83.548 70.3307 83.6013 70.272C83.6546 70.2134 83.7213 70.168 83.8013 70.136C83.8866 70.104 83.9746 70.0907 84.0653 70.096C84.172 70.1013 84.2919 70.128 84.4253 70.176C84.5586 70.224 84.6733 70.2987 84.7693 70.4L85.0653 69.936C84.9053 69.808 84.7346 69.7174 84.5533 69.664C84.3719 69.6054 84.1666 69.576 83.9373 69.576C83.6813 69.576 83.4653 69.624 83.2893 69.72C83.1186 69.816 82.9879 69.9413 82.8973 70.096C82.812 70.2453 82.7693 70.408 82.7693 70.584C82.7693 70.8134 82.8413 71.008 82.9853 71.168C83.1293 71.328 83.3373 71.4534 83.6093 71.544C83.7426 71.5814 83.868 71.6213 83.9853 71.664C84.1079 71.7067 84.2066 71.7627 84.2813 71.832C84.3613 71.9014 84.4013 71.9947 84.4013 72.112C84.4013 72.2187 84.3719 72.304 84.3133 72.368C84.2599 72.4267 84.188 72.4693 84.0973 72.496C84.0066 72.5227 83.908 72.536 83.8013 72.536C83.6573 72.536 83.5106 72.504 83.3613 72.44C83.2173 72.3707 83.076 72.2694 82.9373 72.136L82.6253 72.568C82.7693 72.7334 82.9506 72.8587 83.1693 72.944Z" fill="white"/>
</svg>
